<svg width="78" height="78" viewBox="0 0 78 78" fill="none" xmlns="http://www.w3.org/2000/svg">
<path d="M78 39C78 17.4586 60.5414 0 39 0C17.4586 0 0 17.4586 0 39C0 60.5414 17.4586 78 39 78C39.2285 78 39.457 78 39.6855 77.9848V47.6379H31.3066V37.8727H39.6855V30.682C39.6855 22.3488 44.7738 17.809 52.2082 17.809C55.773 17.809 58.8352 18.068 59.7188 18.1898V26.9039H54.6C50.5629 26.9039 49.7707 28.8234 49.7707 31.6418V37.8574H59.4445L58.1801 47.6227H49.7707V76.4918C66.0715 71.8148 78 56.809 78 39Z" fill="#3B5998"/>
</svg>
